<?xml version="1.0" standalone="no"?>
<!DOCTYPE svg PUBLIC "-//W3C//DTD SVG 20010904//EN"
 "http://www.w3.org/TR/2001/REC-SVG-20010904/DTD/svg10.dtd">
<svg version="1.0" xmlns="http://www.w3.org/2000/svg"
 width="640.000000pt" height="640.000000pt" viewBox="0 0 640.000000 640.000000"
 preserveAspectRatio="xMidYMid meet">

<g transform="translate(0.000000,640.000000) scale(0.100000,-0.100000)"
fill="#000000" stroke="none">
<path d="M0 3408 c0 -1645 2 -2989 4 -2987 6 6 114 333 146 445 26 87 63 180
115 289 8 17 19 49 25 72 10 41 30 70 160 238 99 129 162 200 232 262 75 67
227 158 327 197 34 14 76 33 94 44 18 11 82 45 142 77 61 32 115 61 120 65 6
4 46 27 90 51 44 23 116 65 160 91 44 26 87 48 96 48 22 0 34 16 75 97 146
290 260 393 449 407 50 4 126 10 169 13 l79 6 -6 -48 c-6 -40 -15 -55 -53 -92
-74 -69 -100 -85 -148 -85 -54 -1 -63 4 -72 45 -7 32 -7 31 -21 -23 -18 -67
-12 -153 17 -250 16 -55 27 -73 48 -84 32 -17 82 -63 82 -75 0 -5 7 -12 16
-15 10 -4 13 -2 8 7 -5 7 -1 7 10 -2 9 -8 15 -20 12 -27 -3 -7 0 -16 5 -20 6
-3 9 -15 6 -25 -3 -11 -1 -19 3 -19 5 0 15 -6 22 -13 7 -7 20 -18 29 -23 18
-10 114 -93 213 -185 34 -31 86 -78 116 -104 30 -27 64 -60 75 -74 45 -59 190
-189 197 -178 5 8 8 5 8 -8 0 -11 30 -51 66 -90 35 -38 88 -104 116 -145 l52
-74 9 29 c6 16 23 43 39 60 15 16 28 38 28 48 0 9 4 17 8 17 5 0 20 18 34 39
27 41 22 61 -14 61 -10 0 -18 5 -18 11 0 6 8 9 19 6 10 -2 26 0 35 5 10 6 16
5 16 -2 0 -13 37 5 62 30 13 14 14 19 4 23 -7 3 -12 16 -11 29 2 18 7 22 26
20 13 -1 20 1 14 5 -19 15 -17 43 3 43 11 0 26 7 33 16 12 15 11 16 -10 9 -16
-5 -21 -4 -17 4 4 6 13 11 20 11 7 0 23 10 35 21 16 15 25 18 30 10 5 -7 18 5
37 31 35 50 270 287 339 343 69 56 97 91 116 144 9 27 24 50 36 55 44 20 59
180 28 286 -10 30 -19 92 -22 138 -6 96 -1 99 74 53 51 -32 109 -88 139 -136
11 -17 53 -75 94 -130 41 -54 89 -124 105 -154 30 -53 32 -55 184 -132 85 -43
161 -85 170 -93 32 -28 178 -95 286 -132 61 -20 121 -42 135 -49 14 -7 40 -19
58 -25 18 -7 55 -35 82 -61 28 -27 58 -49 68 -49 22 0 78 -40 99 -71 16 -21
16 -21 -11 -4 -30 20 -46 12 -28 -13 7 -9 15 -25 18 -34 3 -9 12 -19 20 -22 8
-3 14 -16 14 -29 0 -13 11 -34 25 -47 14 -13 25 -30 25 -38 0 -9 12 -36 27
-60 14 -25 28 -66 30 -91 2 -25 9 -48 15 -52 6 -4 8 -15 4 -25 -13 -33 -17
-92 -6 -99 5 -3 10 0 11 7 2 44 19 78 19 39 0 -12 7 -24 15 -27 8 -4 15 -11
15 -18 0 -6 8 -16 19 -23 19 -12 43 -91 40 -128 -1 -11 -1 -33 -1 -50 2 -21 5
-26 13 -18 7 7 12 21 13 32 2 32 21 30 24 -2 2 -18 -2 -29 -12 -33 -9 -3 -16
-16 -16 -28 0 -12 -5 -27 -12 -34 -9 -9 -9 -12 0 -12 16 0 52 37 44 45 -4 3 1
3 11 -1 14 -5 17 -20 17 -88 0 -141 -29 -435 -59 -601 -27 -145 -34 -179 -57
-254 -5 -17 -3 -22 6 -19 7 2 20 26 29 53 8 28 21 56 28 63 7 7 13 16 13 20 1
9 19 135 26 187 4 22 11 45 16 52 5 6 13 24 17 40 l8 28 22 -37 c13 -21 27
-38 32 -38 5 0 9 -7 9 -15 0 -8 4 -24 10 -35 6 -11 15 -29 20 -40 11 -22 1
-27 -18 -8 -23 23 -10 -46 14 -72 24 -27 44 -87 44 -132 0 -21 5 -28 20 -28
13 0 20 -7 20 -20 0 -19 7 -20 105 -20 l105 0 0 3200 0 3200 -3200 0 -3200 0
0 -2992z m3179 1625 c25 -2 55 -4 66 -4 11 -1 34 -5 51 -10 30 -9 108 -19 175
-22 24 -1 52 -15 87 -42 29 -21 52 -43 52 -47 0 -4 4 -8 9 -8 5 0 7 9 4 20 -4
14 2 23 23 32 22 10 28 10 32 0 2 -6 12 -12 23 -12 18 0 26 -3 81 -31 17 -9
23 -9 26 0 5 16 29 13 36 -5 3 -9 12 -14 18 -12 7 3 23 -6 35 -18 25 -25 32
-89 11 -97 -10 -4 -9 -8 2 -16 12 -9 10 -11 -12 -11 -16 0 -28 -5 -28 -12 0
-6 -7 -19 -15 -28 -14 -16 -13 -18 25 -24 26 -4 40 -11 40 -21 0 -18 -21 -20
-38 -3 -15 15 -35 -2 -27 -23 6 -16 51 -39 77 -39 9 0 22 -9 28 -20 8 -15 8
-20 -1 -20 -8 0 -6 -7 4 -18 32 -35 24 -43 -55 -57 -21 -3 -38 -10 -38 -16 0
-5 -14 -7 -31 -4 -16 3 -35 2 -42 -2 -7 -4 -38 -8 -69 -9 -32 -1 -65 -7 -74
-15 -13 -10 -48 -14 -138 -13 -102 1 -134 5 -199 27 -43 14 -85 23 -94 20 -10
-4 -14 -2 -10 4 5 7 -12 12 -47 15 -30 1 -52 0 -49 -4 2 -5 0 -8 -6 -8 -5 0
-12 4 -15 9 -3 5 -32 9 -64 8 -31 0 -67 5 -79 11 -11 6 -34 13 -51 14 -23 2
-32 8 -35 25 -3 15 2 27 12 33 13 7 12 10 -11 19 -32 12 -37 36 -9 44 12 3 18
0 15 -7 -3 -7 6 -12 21 -14 14 -1 25 2 25 7 0 6 16 15 35 22 39 14 29 28 -15
23 -24 -3 -28 0 -23 13 5 13 2 15 -15 11 -12 -4 -22 -2 -22 3 0 5 5 9 10 9 16
0 12 37 -4 43 -8 3 -16 1 -18 -5 -3 -7 -11 -9 -20 -5 -22 8 -32 77 -17 125 10
36 10 43 -11 72 l-22 31 26 26 c22 22 36 26 103 29 43 3 94 8 113 13 19 5 48
7 64 4 16 -3 50 -7 75 -10z m-544 -133 c-3 -5 -18 -10 -33 -10 -21 0 -24 2
-12 10 20 13 53 13 45 0z m-198 -672 c-3 -7 -5 -2 -5 12 0 14 2 19 5 13 2 -7
2 -19 0 -25z m1127 16 c9 -3 16 -16 16 -28 0 -12 5 -27 11 -33 21 -21 22 -90
1 -110 -36 -34 -38 -83 -3 -83 14 0 14 2 1 10 -10 7 -11 10 -2 10 21 0 27 -31
8 -42 -17 -9 -17 -11 1 -27 10 -9 30 -24 44 -33 17 -11 26 -26 26 -45 1 -15 3
-43 6 -60 5 -37 3 -38 -85 -49 -48 -5 -59 -4 -64 10 -3 9 -15 16 -26 16 -10 0
-17 4 -14 9 4 5 -2 7 -13 4 -10 -3 -22 0 -26 7 -8 13 12 68 32 88 7 8 11 18 8
23 -4 5 1 9 9 9 13 0 15 9 12 43 -3 23 -5 53 -5 67 -1 14 -14 40 -30 57 -31
34 -32 58 -4 98 7 11 13 27 13 36 0 23 49 36 84 23z m-1319 -73 c27 -14 31
-20 20 -25 -18 -6 -52 12 -59 31 -7 17 -2 16 39 -6z m175 -38 c0 -14 -6 -23
-15 -23 -9 0 -15 9 -15 23 0 14 6 24 15 24 9 0 15 -10 15 -24z m344 -9 c13 -5
14 -9 5 -20 -6 -8 -17 -14 -25 -14 -7 0 -17 -7 -21 -15 -8 -13 -11 -12 -23 3
-29 34 -24 52 14 52 19 0 42 -3 50 -6z m278 -70 c38 -4 66 -10 61 -14 -14 -14
-137 -24 -129 -11 4 6 5 11 2 11 -2 0 -12 3 -22 7 -12 4 -15 3 -10 -5 5 -8 -5
-11 -33 -9 -21 1 -37 5 -36 8 2 3 -25 5 -60 6 -54 0 -62 -2 -50 -13 7 -8 21
-14 31 -14 9 0 33 -10 52 -22 27 -17 56 -23 121 -26 47 -2 93 -8 101 -12 26
-14 112 8 155 39 22 15 51 32 65 36 14 4 31 12 37 17 19 15 83 16 83 1 0 -7
-8 -13 -17 -13 -15 0 -16 -2 -3 -10 13 -9 13 -11 0 -20 -13 -8 -13 -10 2 -10
10 0 16 -6 14 -12 -2 -7 -10 -35 -16 -61 -12 -46 -14 -48 -41 -42 -20 5 -48
-3 -96 -25 -77 -35 -126 -61 -133 -69 -3 -4 -30 -23 -60 -44 -58 -39 -99 -47
-120 -22 -7 8 -20 15 -29 15 -18 0 -66 34 -66 47 0 14 -44 53 -60 53 -8 0 -16
6 -16 13 -2 21 -5 31 -13 50 -6 12 -3 24 8 36 18 20 20 31 6 31 -5 0 -10 -7
-10 -15 0 -23 -14 -18 -26 10 -9 18 -9 25 0 28 6 3 -2 10 -17 16 -27 11 -36
45 -12 47 6 0 18 4 27 8 20 9 77 10 131 3 38 -5 38 -5 21 15 -19 20 -18 20 35
-1 29 -11 85 -23 123 -27z m93 -74 c-3 -5 -12 -7 -20 -3 -21 7 -19 13 6 13 11
0 18 -4 14 -10z m790 -50 c63 -14 120 -20 153 -17 61 6 61 6 65 -78 2 -54 0
-61 -20 -70 -13 -5 -23 -16 -23 -23 0 -10 -16 -12 -62 -9 -42 2 -62 7 -60 15
1 7 -7 12 -18 12 -10 0 -24 9 -29 19 -6 10 -24 23 -40 29 -16 6 -32 19 -36 31
-3 11 -21 29 -39 41 -19 11 -36 31 -38 45 -6 30 1 38 27 32 11 -3 65 -15 120
-27z m-1522 -146 c-5 -80 -8 -93 -15 -69 -13 41 -10 114 4 147 7 15 14 26 15
24 2 -1 0 -47 -4 -102z m881 -119 c9 -34 -2 -54 -33 -61 -14 -3 -35 -10 -46
-16 -18 -10 -18 -9 -7 4 10 13 10 17 0 20 -8 3 0 19 21 45 35 44 55 46 65 8z
m81 -101 c-17 -18 -20 -34 -5 -34 6 0 10 -9 10 -20 0 -11 -2 -20 -4 -20 -2 0
-11 -3 -19 -6 -11 -4 -19 5 -26 33 -14 47 -14 56 -1 48 6 -3 17 1 26 9 9 9 20
14 25 10 5 -3 2 -12 -6 -20z m393 -39 c0 -25 -3 -45 -8 -45 -13 0 -21 62 -9
76 17 20 17 19 17 -31z m-526 3 c-18 -19 -22 -20 -22 -6 0 9 8 21 17 27 27 15
29 3 5 -21z m208 -45 c-5 -20 -8 -39 -8 -42 2 -25 -5 -41 -18 -41 -12 0 -14 5
-9 18 4 9 9 24 10 32 9 49 18 79 25 75 4 -3 4 -22 0 -42z m-159 -23 l-10 -25
0 27 c-1 14 2 35 6 45 7 17 8 17 11 -2 1 -12 -2 -32 -7 -45z m221 24 c-2 -10
-4 -27 -5 -36 -1 -9 -5 -15 -9 -12 -4 2 -12 -4 -18 -13 -9 -14 -10 -9 -5 26 3
24 8 48 11 53 10 16 29 2 26 -18z m59 -31 c-9 -15 -10 -13 -11 13 0 17 3 34 8
38 11 12 14 -32 3 -51z m226 35 c-3 -8 -6 -5 -6 6 -1 11 2 17 5 13 3 -3 4 -12
1 -19z m-713 -2 c-6 -16 -34 -30 -34 -18 0 5 5 13 12 20 16 16 29 15 22 -2z
m136 -1 c0 -8 -4 -15 -10 -15 -5 0 -7 7 -4 15 4 8 8 15 10 15 2 0 4 -7 4 -15z
m-104 -22 c-10 -10 -19 5 -10 18 6 11 8 11 12 0 2 -7 1 -15 -2 -18z m520 -40
c-10 -10 -19 5 -10 18 6 11 8 11 12 0 2 -7 1 -15 -2 -18z m-259 -15 c-3 -7 -5
-2 -5 12 0 14 2 19 5 13 2 -7 2 -19 0 -25z m136 -61 c8 7 37 -15 37 -28 0 -5
-20 -9 -45 -9 -47 0 -53 7 -34 42 11 20 13 20 24 5 6 -9 15 -14 18 -10z m90
-3 c-5 -13 -2 -15 15 -10 11 4 23 2 27 -4 3 -5 0 -10 -9 -10 -8 0 -20 -2 -28
-5 -20 -7 -42 11 -35 29 4 9 13 16 21 16 10 0 13 -6 9 -16z m-158 -14 c3 -5
-3 -10 -15 -10 -12 0 -18 5 -15 10 3 6 10 10 15 10 5 0 12 -4 15 -10z m-155
-100 c0 -5 -7 -10 -15 -10 -8 0 -15 5 -15 10 0 6 7 10 15 10 8 0 15 -4 15 -10z
m229 -9 c60 -19 55 -25 -31 -36 -37 -5 -58 -3 -62 4 -4 6 0 11 11 12 10 0 -4
7 -30 14 -27 7 -51 16 -55 19 -13 14 117 3 167 -13z m-149 -21 c0 -12 -8 -12
-35 0 -18 8 -17 9 8 9 15 1 27 -3 27 -9z m270 -6 c0 -2 -7 -4 -15 -4 -8 0 -15
4 -15 10 0 5 7 7 15 4 8 -4 15 -8 15 -10z m-480 -34 c0 -5 -4 -10 -10 -10 -5
0 -10 5 -10 10 0 6 5 10 10 10 6 0 10 -4 10 -10z m166 -119 c-2 -3 7 -12 21
-18 20 -10 24 -10 19 2 -3 8 -1 17 4 20 4 3 10 0 12 -6 6 -18 88 -29 183 -23
64 3 97 1 114 -8 25 -14 29 -35 7 -30 -8 1 -25 -14 -40 -33 -15 -19 -36 -35
-47 -35 -22 0 -25 -10 -7 -28 9 -9 7 -12 -8 -12 -28 0 -36 10 -23 27 9 10 8
13 -4 13 -8 0 -23 3 -33 7 -14 5 -16 2 -12 -21 5 -25 3 -27 -16 -21 -11 4 -34
7 -50 6 -38 -1 -58 16 -50 41 6 19 3 20 -37 12 -24 -4 -53 -8 -64 -10 -11 -1
-22 -3 -24 -3 -2 -1 2 -7 9 -15 6 -8 18 -12 26 -9 8 3 14 1 14 -5 0 -5 -7 -12
-15 -16 -11 -4 -14 -13 -9 -32 6 -25 6 -26 -17 -14 -40 21 -70 48 -58 52 6 2
-2 16 -17 31 -19 20 -23 27 -11 27 24 0 31 19 10 27 -24 9 -43 29 -43 45 0 11
2 11 9 0 5 -9 18 -11 37 -7 36 8 94 37 94 47 0 4 7 5 15 2 8 -4 13 -9 11 -13z
m-856 -441 c0 -5 -4 -10 -10 -10 -5 0 -10 5 -10 10 0 6 5 10 10 10 6 0 10 -4
10 -10z m-30 -50 c0 -5 -8 -10 -17 -10 -15 0 -16 -2 -3 -10 8 -5 11 -12 7 -16
-4 -4 -12 -3 -19 4 -8 8 -8 15 2 27 14 17 30 20 30 5z m-31 -96 c-5 -6 -7 -19
-3 -28 3 -9 1 -16 -5 -16 -6 0 -11 -19 -11 -45 0 -34 4 -45 16 -45 8 0 13 -4
10 -9 -3 -5 -16 -7 -29 -5 -12 2 -16 2 -9 -2 6 -3 12 -13 12 -21 0 -9 6 -13
15 -9 22 8 18 -10 -7 -33 -16 -16 -25 -18 -35 -10 -10 9 -13 8 -13 -1 0 -6
-11 2 -25 18 -28 33 -32 47 -12 39 7 -3 13 3 14 12 0 9 4 38 7 64 5 35 4 47
-4 42 -7 -4 -6 1 2 14 15 24 25 27 31 9 2 -7 3 0 1 16 -4 25 -2 27 12 15 15
-12 16 -11 10 9 -7 21 -6 22 13 11 14 -9 17 -17 10 -25z m-112 -76 c-3 -8 -6
-5 -6 6 -1 11 2 17 5 13 3 -3 4 -12 1 -19z m116 -13 c-3 -9 -8 -14 -10 -11 -3
3 -2 9 2 15 9 16 15 13 8 -4z m47 -216 c0 -5 -4 -9 -10 -9 -5 0 -10 7 -10 16
0 8 5 12 10 9 6 -3 10 -10 10 -16z m355 -250 c11 -17 -1 -21 -15 -4 -8 9 -8
15 -2 15 6 0 14 -5 17 -11z m520 -103 c-11 -8 -23 -12 -28 -9 -13 8 3 23 26
23 20 0 20 0 2 -14z m105 -11 c7 -9 15 -13 18 -10 3 3 14 -2 24 -12 17 -15 18
-15 18 0 0 21 19 22 26 2 4 -8 13 -15 21 -15 8 0 12 -4 8 -9 -3 -6 3 -14 12
-20 10 -6 14 -11 8 -12 -35 -5 -61 -6 -69 -2 -18 12 -91 11 -98 0 -5 -8 -12
-6 -22 8 -14 19 -13 20 12 26 26 7 27 7 5 14 -26 8 -25 7 -17 29 8 20 38 21
54 1z m-265 -35 c3 -5 -1 -10 -10 -10 -9 0 -13 5 -10 10 3 6 8 10 10 10 2 0 7
-4 10 -10z m172 -4 c-5 -13 -97 -9 -112 5 -5 6 15 9 53 8 41 -1 61 -5 59 -13z
m-10 -61 c0 -8 -6 -15 -14 -15 -7 0 -13 7 -13 15 0 8 6 15 13 15 8 0 14 -7 14
-15z m168 -5 c-3 -6 1 -7 9 -4 11 4 16 0 16 -15 0 -25 -35 -29 -65 -8 -23 17
-12 37 21 37 14 0 22 -4 19 -10z m2260 -40 c3 -5 1 -10 -4 -10 -6 0 -11 5 -11
10 0 6 2 10 4 10 3 0 8 -4 11 -10z m-2701 -25 c-4 -8 -10 -15 -15 -15 -4 0 -6
7 -3 15 4 8 10 15 15 15 4 0 6 -7 3 -15z m318 -27 c-9 -9 -7 -14 6 -24 16 -12
16 -13 0 -14 -9 0 -20 5 -23 10 -9 15 2 40 17 40 9 0 9 -3 0 -12z m56 -55
c-10 -2 -26 -2 -35 0 -10 3 -2 5 17 5 19 0 27 -2 18 -5z m-267 -110 c13 -16
12 -17 -3 -4 -17 13 -22 21 -14 21 2 0 10 -8 17 -17z m196 -29 c-3 -3 -12 -4
-19 -1 -8 3 -5 6 6 6 11 1 17 -2 13 -5z"/>
<path d="M3038 4753 c12 -2 32 -2 45 0 12 2 2 4 -23 4 -25 0 -35 -2 -22 -4z"/>
<path d="M2345 2390 c-3 -5 -2 -17 3 -26 8 -14 10 -12 10 9 0 29 -3 33 -13 17z"/>
<path d="M2325 2310 c-3 -6 1 -7 9 -4 18 7 21 14 7 14 -6 0 -13 -4 -16 -10z"/>
<path d="M2090 2180 c-19 -10 -48 -32 -65 -50 l-30 -31 29 11 c30 11 66 5 66
-11 0 -5 6 -9 13 -9 6 0 28 -16 47 -35 37 -38 53 -45 43 -19 -3 9 -2 15 3 13
113 -52 119 -55 116 -69 -3 -13 17 -31 63 -55 17 -9 41 -23 55 -31 14 -7 34
-13 45 -13 14 0 10 5 -16 17 -50 24 -138 93 -145 114 -3 10 -29 30 -57 44 -67
34 -107 77 -107 115 0 34 -11 36 -60 9z"/>
<path d="M4281 2092 c9 -15 16 -18 21 -9 5 8 21 4 60 -15 29 -15 65 -30 81
-33 15 -4 27 -11 27 -15 0 -5 10 -6 22 -2 13 3 19 1 15 -5 -4 -6 6 -13 23 -17
17 -3 30 -12 30 -20 0 -7 7 -17 16 -20 8 -3 12 -2 9 4 -3 6 -2 10 4 10 5 0 12
-4 15 -9 3 -5 16 -11 28 -14 41 -11 -53 68 -102 85 -128 45 -208 70 -233 75
-27 5 -28 4 -16 -15z"/>
<path d="M1950 2035 c-19 -19 -39 -35 -45 -35 -6 0 -20 -7 -31 -15 -18 -13
-18 -14 6 -8 32 8 76 40 95 70 21 32 15 29 -25 -12z"/>
<path d="M4230 2000 c-9 -6 -10 -10 -3 -10 6 0 15 5 18 10 8 12 4 12 -15 0z"/>
<path d="M4149 1967 c-35 -17 -181 -129 -175 -135 5 -4 113 63 126 77 3 4 24
19 48 34 56 36 57 50 1 24z"/>
<path d="M5640 1289 c0 -11 5 -17 10 -14 6 3 10 13 10 21 0 8 -4 14 -10 14 -5
0 -10 -9 -10 -21z"/>
<path d="M5780 1149 c0 -17 4 -28 10 -24 6 3 10 17 10 31 0 13 -4 24 -10 24
-5 0 -10 -14 -10 -31z"/>
<path d="M5783 1075 c0 -22 2 -30 4 -17 2 12 2 30 0 40 -3 9 -5 -1 -4 -23z"/>
<path d="M5783 970 c0 -30 2 -43 4 -27 2 15 2 39 0 55 -2 15 -4 2 -4 -28z"/>
<path d="M5901 886 c-8 -10 -9 -16 -1 -21 5 -3 13 1 16 10 9 22 -1 29 -15 11z"/>
<path d="M1002 450 c0 -19 2 -27 5 -17 2 9 2 25 0 35 -3 9 -5 1 -5 -18z"/>
<path d="M963 249 c1 -10 3 -16 5 -14 3 2 13 -6 22 -18 22 -27 34 -19 21 15
-12 31 -50 45 -48 17z"/>
<path d="M953 193 c4 -3 7 -10 7 -17 0 -15 47 -39 60 -31 15 9 0 33 -25 39
-13 3 -29 7 -37 9 -7 2 -10 2 -5 0z"/>
<path d="M1036 83 c-10 -10 -7 -83 4 -83 6 0 10 5 10 10 0 7 6 7 19 0 26 -14
28 -13 34 10 3 13 -5 26 -28 44 -18 14 -35 22 -39 19z"/>
</g>
</svg>
