<?xml version="1.0" standalone="no"?>
<!DOCTYPE svg PUBLIC "-//W3C//DTD SVG 20010904//EN"
 "http://www.w3.org/TR/2001/REC-SVG-20010904/DTD/svg10.dtd">
<svg version="1.0" xmlns="http://www.w3.org/2000/svg"
 width="852.000000pt" height="852.000000pt" viewBox="0 0 852.000000 852.000000"
 preserveAspectRatio="xMidYMid meet">

<g transform="translate(0.000000,852.000000) scale(0.100000,-0.100000)"
fill="#000000" stroke="none">
<path d="M1584 6418 c-4 -6 -24 -8 -48 -4 l-41 6 29 -16 c15 -9 51 -17 78 -18
38 -2 55 -9 78 -31 31 -30 39 -55 18 -55 -24 0 -92 28 -102 41 -13 16 -66 42
-73 35 -3 -2 13 -16 36 -30 54 -34 131 -133 131 -168 0 -32 -31 -163 -64 -273
-33 -110 -93 -266 -160 -416 -31 -70 -56 -135 -56 -145 0 -21 19 -55 21 -39 0
6 4 -1 8 -15 5 -18 -1 -44 -20 -87 -36 -82 -23 -80 18 1 31 62 32 64 18 115
-7 29 -11 60 -8 69 10 31 111 254 119 261 2 2 20 -13 39 -35 248 -276 569
-738 734 -1052 88 -169 104 -215 79 -240 -8 -8 -9 -12 -1 -12 44 0 54 30 28
81 -9 16 -13 34 -10 39 3 5 1 11 -5 15 -5 3 -10 10 -10 16 0 23 41 -19 46 -49
4 -18 10 -35 15 -37 4 -3 6 -12 2 -20 -3 -8 -1 -15 5 -15 5 0 12 14 16 31 9
48 7 71 -5 63 -13 -8 -29 13 -29 40 0 11 -8 28 -17 39 -10 11 -12 17 -5 13 7
-4 12 -1 12 8 0 10 -6 13 -15 10 -8 -4 -15 -1 -15 5 0 6 5 11 11 11 19 0 2 58
-32 108 -27 39 -31 56 -33 117 -3 88 -31 157 -115 285 -34 52 -69 112 -78 133
-15 33 -33 49 -33 29 0 -4 30 -57 66 -117 37 -61 78 -130 92 -154 41 -71 67
-211 42 -226 -6 -4 -32 4 -57 17 -41 20 -57 40 -135 163 -49 77 -109 180 -135
230 -25 49 -74 122 -108 161 -33 40 -75 102 -93 138 -36 73 -96 171 -112 181
-14 9 -12 64 6 153 19 92 23 100 40 77 11 -15 13 -5 11 61 -1 44 4 111 11 149
10 50 10 80 3 105 -30 107 -32 123 -22 133 6 6 11 18 11 26 0 12 -3 11 -13 -3
-12 -17 -15 -15 -40 17 -15 20 -27 38 -27 41 0 14 42 4 60 -14 14 -14 20 -16
20 -6 0 16 -20 26 -75 36 -22 5 -55 13 -72 18 -23 7 -35 7 -39 0z m146 -267
c10 -21 4 -51 -11 -51 -5 0 -9 16 -9 35 0 40 5 43 20 16z m5 -90 c14 -28 12
-61 -5 -61 -7 0 -20 48 -20 76 0 22 8 17 25 -15z m-58 -373 c-3 -8 -6 -5 -6 6
-1 11 2 17 5 13 3 -3 4 -12 1 -19z m102 -214 c14 -32 -5 -29 -27 4 -13 19 -13
22 0 22 8 0 20 -12 27 -26z m596 -800 c21 -21 46 -84 44 -109 -1 -11 3 -33 9
-48 14 -34 15 -37 2 -37 -5 0 -17 26 -26 58 -9 31 -27 78 -40 105 -24 47 -19
61 11 31z"/>
<path d="M1466 6371 c-12 -19 -61 -178 -176 -566 -39 -132 -85 -287 -102 -345
-17 -58 -41 -125 -54 -151 -12 -25 -25 -63 -29 -85 -4 -21 -14 -55 -23 -74 -9
-19 -16 -54 -17 -78 -1 -23 -9 -50 -18 -60 -10 -10 -17 -25 -17 -32 0 -8 14 2
31 21 26 29 30 39 25 71 -4 22 0 53 8 75 7 21 22 64 32 96 10 32 26 67 36 77
10 11 18 25 18 33 0 7 3 17 7 21 4 4 13 31 19 59 6 29 24 93 39 142 15 50 33
113 40 140 7 28 23 82 35 120 12 39 30 99 40 135 10 36 28 97 40 135 12 39 27
90 34 115 7 25 23 67 35 94 15 31 19 52 13 58 -6 6 -12 6 -16 -1z"/>
<path d="M1242 6202 c-38 -103 -102 -313 -102 -331 0 -12 14 -22 43 -32 23 -7
46 -13 50 -14 5 0 20 34 33 75 28 89 28 86 9 70 -8 -7 -15 -19 -15 -26 0 -8
-5 -14 -11 -14 -7 0 -9 -10 -5 -25 5 -19 2 -25 -10 -25 -10 0 -14 -6 -11 -14
5 -11 -1 -12 -29 -3 -36 11 -28 29 8 19 15 -4 19 -1 16 9 -3 8 -16 13 -32 11
-28 -3 -36 12 -10 22 11 4 14 13 10 31 -4 14 -2 25 3 25 6 0 7 8 4 17 -5 13
-3 15 13 9 43 -18 54 -18 54 -2 0 10 -11 19 -30 23 -28 5 -43 23 -20 23 6 0
10 9 10 20 0 12 7 32 16 45 9 13 13 29 9 34 -8 13 15 91 27 91 5 0 24 -7 44
-15 31 -13 34 -17 28 -42 -12 -52 -23 -64 -44 -53 -35 19 -42 10 -16 -20 31
-37 26 -63 -9 -50 -33 12 -41 -4 -10 -18 15 -7 25 -20 26 -34 0 -13 17 27 38
87 25 77 34 113 26 121 -5 6 -29 18 -51 27 l-42 16 -20 -57z"/>
<path d="M1277 6194 c-8 -8 11 -34 24 -34 5 0 9 10 9 23 0 16 -3 18 -9 8 -6
-9 -10 -10 -12 -2 -3 7 -8 9 -12 5z"/>
<path d="M3635 6018 c-3 -7 -6 -37 -7 -67 -3 -50 -1 -56 22 -68 21 -11 5 -12
-105 -6 -111 5 -135 9 -165 29 l-35 22 -155 -14 c-289 -26 -425 -51 -469 -86
-14 -11 -27 -15 -29 -9 -2 7 -10 7 -26 0 -20 -9 -22 -18 -24 -92 -1 -55 2 -77
8 -67 5 8 10 25 10 37 0 12 6 28 13 35 7 7 17 22 22 33 8 16 10 12 13 -24 2
-33 -1 -47 -12 -53 -9 -5 -16 -18 -16 -28 0 -13 -7 -20 -19 -20 -11 0 -23 -4
-26 -10 -3 -5 -17 -10 -31 -10 -31 0 -31 -16 1 -24 20 -5 25 -13 26 -39 1 -23
3 -26 6 -9 6 31 26 27 42 -9 12 -27 10 -74 -12 -350 -20 -255 -28 -324 -41
-338 -9 -10 -16 -30 -16 -44 0 -28 -6 -32 -34 -21 -10 4 -16 19 -17 43 -1 20
-3 27 -6 16 -2 -11 -6 -30 -9 -42 -3 -18 -11 -23 -35 -23 -39 0 -34 -24 5 -28
27 -3 28 -4 21 -55 -7 -46 -6 -50 8 -39 9 8 17 28 19 45 2 21 9 33 21 35 9 2
17 -2 17 -9 0 -7 7 -20 15 -29 12 -13 12 -32 2 -131 l-13 -116 -42 -40 c-40
-38 -53 -63 -33 -63 6 0 13 5 16 10 3 6 19 10 35 10 16 0 32 -4 35 -10 3 -5
10 -10 14 -10 6 0 25 96 35 180 2 19 2 -13 -1 -71 l-5 -106 47 -12 c62 -16
116 -51 181 -119 79 -82 163 -262 122 -262 -7 0 -19 -14 -26 -32 -11 -30 -10
-34 16 -54 29 -24 47 -18 62 21 7 15 9 16 9 4 1 -14 18 -16 134 -15 160 2 188
13 218 84 44 104 87 177 137 232 75 84 105 100 188 101 38 0 84 6 101 12 25 8
36 8 45 -1 15 -15 38 -16 38 -2 0 6 -6 10 -13 10 -8 0 -40 26 -72 58 -47 47
-54 58 -37 60 24 4 45 47 36 75 -6 19 -7 20 -19 3 -14 -19 -19 -15 -29 27 -7
31 8 67 29 67 8 0 17 11 21 24 11 43 36 56 135 67 116 14 420 3 539 -19 30 -5
57 -9 58 -7 2 2 0 88 -5 192 -6 150 -9 173 -13 113 l-5 -75 -8 55 c-5 30 -17
98 -27 150 -29 149 -48 260 -55 320 -3 30 -11 76 -17 102 -9 37 -9 50 1 62 13
15 9 105 -6 143 -4 11 5 14 48 11 l54 -3 3 -72 c2 -45 7 -73 14 -73 7 0 9 17
4 53 -3 28 -6 71 -6 93 l0 41 -102 11 c-90 10 -360 36 -638 61 -55 5 -69 9
-40 10 53 2 66 8 79 41 9 22 10 23 11 5 3 -31 18 21 19 66 l1 36 -67 6 c-110
11 -183 8 -188 -5z m199 -38 c4 -4 5 -27 1 -49 l-7 -41 -56 0 c-92 0 -102 6
-102 54 0 24 3 45 6 49 9 9 147 -2 158 -13z m-544 -99 c0 -10 -62 -21 -115
-20 -35 1 -33 3 25 14 84 16 90 17 90 6z m-366 -138 c-3 -38 -1 -97 4 -133 l9
-64 -51 -99 c-68 -130 -92 -176 -104 -190 -6 -7 -13 -25 -15 -42 -3 -16 -3 44
-1 135 l5 165 35 34 c42 41 45 81 9 109 -21 17 -25 28 -25 74 0 30 5 59 12 66
7 7 38 12 69 12 l58 0 -5 -67z m634 -709 c13 -4 12 -29 -4 -117 -6 -27 -8 -28
-57 -25 l-52 3 -1 65 c0 36 3 70 8 76 8 11 70 10 106 -2z m-881 -441 c-2 -16
-4 -3 -4 27 0 30 2 43 4 28 2 -16 2 -40 0 -55z m549 -369 c-19 -74 -19 -85 -2
-78 20 7 21 -11 4 -49 -16 -32 -22 -33 -41 -6 -10 13 -17 17 -22 10 -3 -6 -11
-9 -16 -6 -12 8 -12 55 1 55 6 0 10 9 10 20 0 26 -20 26 -27 0 -7 -28 -28 -20
-29 11 -2 27 14 52 28 43 5 -3 15 0 23 6 8 6 19 9 24 6 5 -4 12 -2 16 4 3 5
13 10 22 10 11 0 14 -6 9 -26z m-106 -99 c0 -8 -4 -15 -9 -15 -5 0 -11 7 -15
15 -3 9 0 15 9 15 8 0 15 -7 15 -15z m134 -154 c7 -11 -48 -23 -69 -15 -8 4
-15 10 -15 15 0 12 77 12 84 0z m-220 -67 c4 -9 4 -19 2 -21 -8 -8 -26 8 -26
23 0 19 16 18 24 -2z"/>
<path d="M3508 4923 c7 -3 16 -2 19 1 4 3 -2 6 -13 5 -11 0 -14 -3 -6 -6z"/>
<path d="M3180 4168 c0 -49 5 -47 13 5 3 20 2 37 -4 37 -5 0 -9 -19 -9 -42z"/>
<path d="M3350 5985 c0 -8 7 -15 15 -15 8 0 15 7 15 15 0 8 -7 15 -15 15 -8 0
-15 -7 -15 -15z"/>
<path d="M4612 5976 c-6 -13 -8 -42 -5 -65 l6 -42 28 27 c35 34 43 57 29 84
-15 27 -44 25 -58 -4z"/>
<path d="M1210 5960 c0 -5 7 -10 15 -10 8 0 15 5 15 10 0 6 -7 10 -15 10 -8 0
-15 -4 -15 -10z"/>
<path d="M4126 5928 c-9 -12 -16 -28 -16 -35 0 -15 37 -36 50 -28 6 3 10 1 10
-4 0 -16 27 -13 33 3 3 8 3 23 0 34 -2 11 0 23 6 26 23 14 10 26 -28 26 -30 0
-44 -6 -55 -22z"/>
<path d="M4481 5937 c-6 -8 -12 -36 -13 -63 -3 -43 0 -49 18 -52 17 -3 20 1
16 31 -6 50 12 77 51 78 27 0 29 2 12 9 -31 13 -71 12 -84 -3z"/>
<path d="M1016 5855 c-14 -14 -34 -46 -46 -71 -23 -53 -23 -54 -12 -54 4 0 16
20 26 44 18 44 57 88 86 99 10 4 8 6 -7 6 -12 1 -33 -10 -47 -24z"/>
<path d="M4589 5839 c-2 -13 -1 -141 2 -284 4 -143 7 -375 8 -515 1 -233 7
-300 25 -272 8 14 -15 1064 -24 1081 -5 10 -8 7 -11 -10z"/>
<path d="M1034 5807 c-37 -56 -37 -63 0 -23 20 22 36 43 36 48 0 17 -16 7 -36
-25z"/>
<path d="M4642 5759 c4 -29 39 -37 58 -14 16 19 12 23 -29 31 -30 6 -33 5 -29
-17z"/>
<path d="M4747 5728 c8 -44 13 -48 13 -10 0 17 -4 34 -10 37 -6 4 -7 -6 -3
-27z"/>
<path d="M4761 5658 c-1 -14 6 -62 14 -105 8 -43 15 -79 15 -80 0 -2 -20 -3
-45 -3 -51 0 -59 -15 -16 -33 64 -27 74 -54 115 -297 21 -124 40 -237 43 -251
4 -20 0 -27 -15 -31 -11 -3 -25 -1 -30 4 -5 5 -20 11 -33 12 -13 2 -36 7 -50
11 -35 9 -41 -3 -30 -58 10 -54 58 -133 86 -141 35 -10 84 -6 92 7 5 7 11 -14
14 -53 4 -36 3 -67 -2 -68 -13 -5 0 -22 17 -22 8 0 13 3 10 8 -11 18 -26 206
-17 215 5 5 7 16 4 23 -3 9 2 14 16 14 16 0 23 -8 28 -30 4 -23 11 -30 28 -30
36 0 46 -23 52 -120 l6 -92 -44 3 c-33 3 -44 0 -44 -10 0 -17 77 -58 125 -67
57 -9 67 -14 51 -23 -15 -10 5 -27 104 -86 37 -22 102 -66 144 -97 43 -32 83
-58 89 -58 6 0 12 -4 14 -10 6 -18 72 -100 121 -151 46 -48 57 -72 38 -84 -11
-6 -61 62 -61 82 0 30 -46 35 -371 41 -260 4 -329 2 -329 -8 0 -14 47 -78 98
-132 28 -29 33 -42 28 -62 -4 -16 0 -38 9 -56 20 -38 19 -40 -8 -40 -13 0 -29
-6 -36 -12 -11 -11 -13 -10 -8 5 6 15 4 16 -15 6 -18 -10 -24 -8 -35 7 -7 11
-19 26 -27 35 -7 9 -15 20 -17 26 -4 9 -57 80 -169 226 -78 102 -90 122 -90
157 0 35 -39 119 -75 165 -34 41 -43 23 -12 -22 37 -54 51 -98 38 -120 -9 -16
-10 -16 -11 -1 0 9 -3 18 -8 20 -4 2 -26 35 -49 73 -51 88 -71 111 -102 120
l-24 7 7 -63 c4 -35 8 -105 9 -156 2 -76 -1 -95 -15 -110 -17 -16 -18 -16 -18
19 0 35 -20 56 -41 42 -16 -9 -10 -50 10 -69 20 -17 20 -18 -9 -41 -16 -14
-30 -34 -32 -46 -6 -44 -27 -26 -59 53 -22 52 -48 97 -73 122 l-39 40 -98 -5
c-55 -3 -99 -1 -99 3 0 4 8 10 18 12 13 4 11 5 -5 6 -14 1 -23 -5 -23 -13 0
-11 -23 -16 -97 -20 -113 -7 -186 -22 -192 -39 -2 -7 -18 -25 -35 -42 -82 -79
-137 -176 -191 -338 -24 -71 -39 -103 -51 -106 -10 -2 -66 5 -124 14 -103 17
-108 18 -121 48 l-14 31 -85 -3 c-46 -1 -87 -3 -90 -3 -3 0 -21 0 -40 1 -33 1
-39 7 -95 92 -33 50 -92 121 -131 158 -138 132 -229 151 -410 85 -123 -44
-203 -86 -257 -135 l-42 -38 56 -1 c50 0 57 -3 63 -22 12 -47 5 -82 -29 -137
-58 -93 -76 -150 -63 -202 5 -24 14 -53 19 -64 12 -24 0 -64 -25 -84 -18 -15
-22 -86 -6 -96 16 -10 12 -91 -5 -105 -21 -17 -20 -76 1 -84 15 -6 16 -18 11
-97 -6 -73 -4 -91 8 -95 20 -8 38 -69 30 -104 -9 -40 2 -70 25 -70 21 0 44
-57 34 -84 -3 -9 -1 -29 6 -45 9 -23 18 -29 38 -28 25 2 27 -1 30 -39 2 -29
11 -49 28 -65 25 -23 26 -24 40 -5 15 21 21 19 38 -16 9 -17 24 -25 61 -30 28
-4 82 -12 120 -18 89 -13 344 -12 403 1 61 13 77 23 145 90 48 48 58 64 55 84
-4 17 2 31 20 47 36 34 54 81 42 113 -11 29 -4 50 29 79 12 11 21 27 21 38 0
10 7 18 15 18 8 0 15 4 15 9 0 4 -46 11 -102 15 -127 9 -150 14 -146 34 3 13
24 14 143 12 77 -1 150 -2 162 -2 l23 0 -20 -25 -20 -25 37 -19 c21 -11 58
-19 85 -19 35 0 54 -6 74 -23 26 -22 28 -30 30 -113 3 -77 6 -90 25 -105 17
-13 23 -30 28 -85 7 -77 14 -94 39 -94 13 0 20 -15 29 -61 14 -73 27 -91 59
-83 21 5 24 3 24 -23 0 -38 39 -76 74 -71 16 2 30 -4 38 -15 17 -23 94 -31
278 -30 116 1 146 5 215 27 75 24 125 54 125 76 0 5 20 30 45 54 36 36 45 53
45 80 0 46 16 56 96 60 81 4 171 36 204 71 13 14 27 25 31 25 5 0 6 -71 3
-157 -4 -97 -2 -168 4 -183 8 -20 35 -35 124 -73 l115 -47 44 19 c33 14 82 21
194 28 159 9 367 5 325 -6 -17 -5 -26 -15 -28 -33 -4 -33 28 -54 57 -38 11 5
51 10 89 10 66 0 73 2 119 38 77 60 127 70 412 87 180 10 259 11 273 4 11 -6
30 -8 43 -5 25 6 65 -25 65 -51 0 -15 0 -15 100 -13 68 1 78 4 121 36 26 19
55 34 65 34 11 0 51 10 89 21 79 24 340 52 398 44 21 -3 46 -1 56 5 10 5 45
12 77 14 38 3 48 2 29 -3 l-30 -8 27 -13 c25 -12 38 -9 132 26 l105 39 -27 22
c-15 11 -24 24 -21 28 4 3 42 10 85 14 94 10 101 13 277 134 l137 95 -27 34
c-97 117 -167 193 -177 191 -6 -1 -20 -4 -31 -7 -16 -5 -48 27 -165 166 -80
94 -160 180 -177 191 -18 10 -33 20 -34 20 0 1 -4 72 -9 157 -7 125 -13 166
-32 213 l-23 58 -542 0 c-299 0 -543 1 -543 3 0 2 5 17 11 34 9 25 7 37 -7 61
-16 28 -19 28 -40 14 -21 -14 -26 -13 -49 5 -20 16 -22 21 -9 26 10 4 14 15
12 33 -2 23 -11 30 -53 45 -27 10 -54 24 -60 31 -14 18 -62 37 -93 37 -15 0
-40 7 -56 15 -15 8 -34 15 -42 15 -30 0 -22 21 18 50 24 17 43 37 43 43 0 7
-22 15 -50 18 -27 4 -77 11 -110 17 -111 19 -185 24 -185 12 0 -12 134 -186
187 -241 30 -32 34 -41 28 -71 -4 -22 -17 -43 -34 -56 l-27 -20 -25 36 c-13
20 -24 47 -24 60 0 19 -15 37 -58 71 -32 25 -91 82 -131 127 -66 74 -74 79
-85 63 -16 -27 -31 -24 -31 6 0 14 6 25 14 25 10 0 12 9 6 38 -12 67 -94 202
-112 184 -7 -7 -2 -21 15 -44 25 -32 67 -142 67 -174 0 -28 -21 -10 -57 49
-27 42 -33 60 -25 70 15 17 -51 100 -101 127 l-37 20 0 -67 0 -66 -23 21 c-13
12 -28 22 -34 22 -6 0 -18 11 -26 24 -14 20 -74 43 -99 38 -5 -1 -8 5 -8 14 0
14 8 16 55 10 46 -5 55 -4 55 9 0 9 -8 18 -17 21 -10 3 -31 12 -46 21 -21 11
-32 12 -40 4 -15 -15 -37 -14 -31 2 3 8 -11 17 -39 24 l-43 12 -10 102 c-9
100 -9 102 13 112 14 6 23 19 23 32 0 11 5 26 11 32 13 13 18 147 6 159 -4 5
-29 11 -54 14 l-47 5 -21 135 c-12 74 -25 154 -29 176 -7 41 -7 41 18 37 32
-6 33 8 6 87 -17 51 -19 52 -19 22 -1 -40 -24 -40 -29 0 -5 42 -44 70 -109 77
l-58 6 -17 80 c-9 44 -17 68 -17 53z m162 -185 c23 -21 34 -67 47 -193 6 -58
17 -145 24 -195 13 -80 12 -91 -1 -102 -10 -7 -17 -36 -20 -77 -5 -59 -8 -66
-27 -66 -13 0 -26 11 -34 28 -15 31 -115 610 -107 622 8 13 98 0 118 -17z
m211 -571 c-12 -84 -10 -82 -64 -82 -27 0 -52 5 -55 11 -4 5 -4 37 0 69 l7 59
46 3 c57 4 72 -10 66 -60z m-227 -179 c-3 -10 -5 -4 -5 12 0 17 2 24 5 18 2
-7 2 -21 0 -30z m183 -213 c0 -5 -4 -10 -10 -10 -5 0 -10 5 -10 10 0 6 5 10
10 10 6 0 10 -4 10 -10z m-593 -310 c41 -72 102 -150 118 -150 18 0 268 -431
256 -443 -6 -6 -12 -9 -15 -6 -2 2 -49 79 -104 171 -154 256 -194 312 -224
316 -41 5 -67 42 -83 118 -26 120 -18 119 52 -6z m-367 -112 c0 -15 -14 -8
-47 24 -46 44 -41 56 7 17 22 -18 40 -36 40 -41z m1160 -88 c0 -5 -4 -10 -10
-10 -5 0 -10 5 -10 10 0 6 5 10 10 10 6 0 10 -4 10 -10z m-3116 -19 c3 -5 -3
-20 -15 -34 -14 -19 -28 -26 -49 -24 -17 1 -30 7 -30 14 0 6 -3 18 -6 26 -3
10 2 17 13 20 32 8 82 7 87 -2z m3526 -41 c0 -5 -4 -10 -10 -10 -5 0 -10 5
-10 10 0 6 5 10 10 10 6 0 10 -4 10 -10z m-354 -50 c8 -25 14 -48 14 -52 0 -5
-22 -8 -50 -8 -37 0 -50 4 -50 14 0 12 7 13 32 5 17 -5 33 -7 35 -5 3 2 1 20
-2 40 -8 39 -32 48 -58 21 -17 -16 -27 -10 -27 17 0 16 7 19 46 16 46 -3 47
-4 60 -48z m-1588 17 c2 -10 -3 -17 -11 -17 -16 0 -30 24 -19 34 10 10 27 1
30 -17z m-72 -2 c-21 -16 -32 -13 -21 4 3 6 14 11 23 11 15 -1 15 -2 -2 -15z
m1102 -40 c-3 -3 -9 2 -12 12 -6 14 -5 15 5 6 7 -7 10 -15 7 -18z m879 9 c1
-5 -2 -16 -7 -24 -12 -20 -35 2 -26 25 6 17 27 16 33 -1z m-1892 -29 c19 -19
35 -38 35 -43 0 -5 10 -17 21 -28 42 -37 118 -231 118 -299 0 -11 -14 14 -31
55 -30 72 -94 181 -110 188 -5 2 -8 12 -8 23 0 25 -41 50 -93 56 -39 5 -46 2
-95 -42 -29 -26 -56 -45 -59 -41 -12 12 40 97 77 126 20 16 51 30 70 33 19 2
36 5 38 5 1 1 18 -14 37 -33z m1955 -32 c0 -5 4 -25 9 -46 7 -28 6 -37 -2 -34
-7 2 -14 17 -17 33 -3 17 -11 29 -20 29 -21 0 -26 -44 -6 -51 26 -10 18 -24
-12 -24 -26 0 -27 2 -24 41 3 30 10 43 26 49 27 11 46 12 46 3z m-676 -68 c15
-23 15 -26 1 -32 -10 -3 -25 3 -38 16 -19 19 -20 23 -7 31 22 14 26 13 44 -15z
m1072 -7 c-9 -12 -16 -19 -16 -15 0 11 24 47 28 42 2 -2 -3 -14 -12 -27z
m-2604 -113 c-18 -36 -32 -73 -33 -83 0 -11 -2 -12 -6 -4 -8 20 50 173 61 162
7 -7 -1 -33 -22 -75z m-1113 46 c101 -52 193 -236 190 -381 -1 -33 -2 -32 -21
23 -12 35 -30 64 -44 74 -13 8 -24 21 -24 28 0 14 -29 29 -39 20 -3 -3 0 -10
8 -14 19 -12 -10 -21 -68 -21 -34 0 -56 -6 -75 -21 l-27 -21 7 28 c4 16 15 51
25 78 10 28 17 52 14 54 -6 6 -44 -58 -51 -85 -4 -13 -10 -23 -15 -23 -5 0 -9
-9 -9 -20 0 -10 -5 -30 -11 -44 -7 -14 -8 -33 -4 -43 7 -17 8 -17 16 2 6 14 8
6 4 -25 -9 -80 8 -148 48 -187 32 -32 40 -36 98 -38 35 -1 73 -5 85 -9 13 -4
25 -1 31 6 12 18 35 85 44 133 5 26 7 7 4 -55 -8 -204 -113 -370 -233 -370
-132 0 -235 157 -264 400 -25 215 55 450 173 508 54 27 89 28 138 3z m1387
-22 c52 -32 122 -168 139 -269 7 -40 6 -43 -9 -31 -9 7 -16 20 -16 27 0 8 -9
14 -20 14 -23 0 -26 -10 -8 -28 9 -9 0 -12 -40 -12 -29 0 -52 4 -52 9 0 19 42
147 55 167 12 19 12 24 -7 40 -12 11 -18 13 -14 7 4 -8 -13 -31 -46 -61 -29
-27 -64 -60 -78 -73 -30 -28 -46 -84 -60 -211 -11 -92 -6 -157 21 -279 9 -42
12 -45 39 -41 21 3 30 -1 34 -16 4 -11 16 -28 27 -38 19 -17 20 -17 13 2 -4
11 2 7 16 -11 13 -16 27 -34 31 -39 8 -9 -11 57 -30 107 -6 15 -7 27 -3 28 87
6 162 7 162 0 0 -27 -43 -167 -64 -208 -54 -107 -140 -143 -211 -89 -44 34
-100 146 -127 252 -19 76 -22 115 -22 274 0 173 2 191 28 275 58 191 145 264
242 204z m-570 -131 l202 -3 -24 -23 c-22 -23 -26 -23 -151 -18 -213 11 -296
16 -305 22 -19 12 14 33 45 29 18 -2 123 -5 233 -7z m251 -20 c-3 -8 -6 -5 -6
6 -1 11 2 17 5 13 3 -3 4 -12 1 -19z m491 -108 l0 -25 -8 25 c-4 14 -8 34 -8
45 l-1 20 9 -20 c5 -11 8 -31 8 -45z m-830 -1 c-2 -6 -8 -10 -13 -10 -5 0 -11
4 -13 10 -2 6 4 11 13 11 9 0 15 -5 13 -11z m559 -301 c-2 -13 -4 -5 -4 17 -1
22 1 32 4 23 2 -10 2 -28 0 -40z m20 -70 c-3 -8 -6 -5 -6 6 -1 11 2 17 5 13 3
-3 4 -12 1 -19z m174 -369 c-5 -13 -10 -19 -10 -12 -1 15 10 45 15 40 3 -2 0
-15 -5 -28z m-31 -44 c0 -31 -86 -95 -109 -81 -15 10 -2 34 22 42 12 4 33 15
46 25 23 19 41 24 41 14z"/>
<path d="M2300 3584 c0 -8 5 -12 10 -9 6 3 10 10 10 16 0 5 -4 9 -10 9 -5 0
-10 -7 -10 -16z"/>
<path d="M3577 3307 c-4 -10 -5 -52 -3 -95 4 -63 3 -69 -4 -32 -6 35 -8 23 -5
-50 3 -97 5 -107 22 -149 7 -17 9 28 6 150 -5 188 -6 202 -16 176z"/>
<path d="M3591 2934 c0 -11 3 -14 6 -6 3 7 2 16 -1 19 -3 4 -6 -2 -5 -13z"/>
<path d="M3800 2700 c6 -11 15 -20 20 -20 14 0 12 9 -4 26 -21 20 -28 17 -16
-6z"/>
<path d="M5203 5670 c-20 -8 -23 -16 -23 -67 0 -60 13 -128 31 -175 13 -32 64
-47 99 -28 21 11 22 16 14 78 -4 37 -8 83 -8 102 -1 43 -23 76 -60 90 -15 5
-28 10 -29 9 -1 0 -12 -4 -24 -9z"/>
<path d="M5065 5600 c-3 -6 1 -7 9 -4 18 7 21 14 7 14 -6 0 -13 -4 -16 -10z"/>
<path d="M5015 5560 c-16 -16 -27 -31 -24 -33 2 -2 17 11 32 30 36 41 31 43
-8 3z"/>
<path d="M2623 5440 c0 -25 2 -35 4 -22 2 12 2 32 0 45 -2 12 -4 2 -4 -23z"/>
<path d="M2612 5345 c0 -16 2 -22 5 -12 2 9 2 23 0 30 -3 6 -5 -1 -5 -18z"/>
<path d="M885 5235 c-31 -63 -45 -144 -19 -107 23 33 55 124 52 146 -2 16 -11
5 -33 -39z"/>
<path d="M2592 5185 c0 -16 2 -22 5 -12 2 9 2 23 0 30 -3 6 -5 -1 -5 -18z"/>
<path d="M2572 5022 c-8 -63 -12 -116 -9 -118 6 -7 30 189 25 212 -2 10 -9
-32 -16 -94z"/>
<path d="M1713 5047 c-69 -19 -113 -36 -113 -44 0 -20 117 -484 124 -490 16
-16 15 11 -4 78 -26 96 -25 113 6 138 35 27 42 26 55 -6 7 -20 7 -33 -2 -49
-12 -23 -6 -77 10 -103 8 -12 18 -13 48 -5 43 10 49 25 33 82 -8 30 -18 44
-40 54 -29 13 -40 28 -20 28 6 0 10 6 10 14 0 20 35 29 59 16 28 -15 36 -33
56 -125 20 -95 34 -135 47 -135 13 0 15 -8 -126 529 -7 25 -16 46 -21 47 -6 1
-61 -12 -122 -29z m111 -26 c26 -29 71 -212 55 -222 -13 -8 -170 -49 -187 -49
-6 0 -22 49 -37 109 -21 86 -24 113 -16 130 13 23 52 37 77 27 8 -3 25 1 37 9
29 20 50 19 71 -4z"/>
<path d="M1778 4954 c-7 -6 12 -86 23 -98 16 -18 20 2 8 48 -11 45 -21 61 -31
50z"/>
<path d="M1700 4934 c0 -29 22 -104 31 -104 12 0 11 37 -2 83 -10 37 -29 51
-29 21z"/>
<path d="M1212 4821 c-27 -45 -114 -208 -192 -362 -116 -230 -144 -278 -153
-265 -13 17 -37 8 -40 -15 -2 -8 -5 -18 -9 -24 -4 -6 13 -10 45 -9 l51 2 39
73 c65 123 273 540 301 603 41 93 16 91 -42 -3z"/>
<path d="M4600 4706 c0 -34 12 -52 28 -42 4 3 6 21 4 40 -6 48 -32 49 -32 2z"/>
<path d="M4480 4603 c0 -5 9 -19 20 -33 21 -26 27 -12 10 21 -10 19 -30 26
-30 12z"/>
<path d="M4324 4585 c-7 -18 14 -47 27 -39 5 3 9 16 9 30 0 27 -27 34 -36 9z"/>
<path d="M4390 4554 c0 -39 5 -55 21 -70 20 -18 20 -18 14 6 -3 14 -7 36 -7
50 -1 14 -8 34 -15 45 -12 17 -13 14 -13 -31z"/>
<path d="M5325 4559 c-9 -13 2 -59 14 -59 20 0 32 29 21 49 -12 23 -25 27 -35
10z"/>
<path d="M5480 4563 c0 -4 5 -15 10 -23 8 -13 10 -13 10 2 0 9 -4 20 -10 23
-5 3 -10 3 -10 -2z"/>
<path d="M5390 4524 c0 -36 13 -64 30 -64 8 0 -13 86 -23 96 -4 4 -7 -11 -7
-32z"/>
<path d="M3871 4490 c-13 -33 -22 -63 -19 -66 10 -9 371 -154 385 -154 14 0
40 51 49 98 5 25 1 29 -58 52 -35 13 -119 48 -187 77 -67 29 -128 53 -135 53
-6 0 -22 -27 -35 -60z m119 10 l39 -20 -17 -41 c-9 -23 -21 -43 -27 -45 -18
-7 -105 34 -105 49 0 8 7 28 16 45 18 38 39 40 94 12z m120 -50 c51 -26 54
-32 33 -75 -16 -34 -20 -36 -51 -31 -42 6 -82 32 -82 51 0 21 17 19 47 -5 14
-11 31 -20 38 -20 12 0 25 21 25 39 0 11 -50 32 -61 26 -14 -9 -29 4 -22 20 7
20 26 19 73 -5z m100 -47 c0 -2 -7 -17 -15 -32 -17 -35 -3 -54 34 -44 19 5 22
2 19 -13 -7 -35 -98 -15 -98 21 0 7 7 29 15 48 10 25 20 35 30 31 8 -4 15 -8
15 -11z m60 -34 c0 -12 -29 -24 -37 -16 -3 4 -3 13 0 21 6 16 37 11 37 -5z"/>
<path d="M3934 4481 c8 -12 46 -21 46 -11 0 8 -24 20 -41 20 -6 0 -8 -4 -5 -9z"/>
<path d="M3910 4452 c0 -8 43 -32 55 -32 15 0 1 19 -20 28 -31 14 -35 15 -35
4z"/>
<path d="M4225 4530 c5 -9 69 -40 81 -40 2 0 4 6 4 13 0 16 -41 37 -71 37 -11
0 -17 -5 -14 -10z"/>
<path d="M1292 4478 c-6 -29 -31 -90 -57 -135 -45 -79 -46 -83 -34 -122 12
-40 12 -41 -31 -88 l-44 -47 25 -9 c13 -5 42 -17 64 -28 22 -10 51 -17 65 -14
57 12 -333 -157 -497 -215 -63 -22 -83 -26 -83 -16 0 9 -7 12 -20 9 -14 -4
-20 0 -20 12 0 13 3 15 13 7 16 -13 28 -5 47 32 12 23 12 30 3 33 -7 3 -13 12
-13 22 0 28 31 111 42 111 5 0 7 8 3 19 -7 24 3 51 20 51 31 0 18 25 -24 47
-43 22 -47 22 -59 5 -7 -9 -17 -16 -22 -15 -4 1 -7 -26 -7 -61 1 -35 5 -62 10
-59 4 2 7 1 7 -2 0 -16 -54 -156 -62 -161 -5 -3 -20 1 -33 10 -13 9 -32 16
-41 16 -10 0 -25 7 -35 16 -15 14 -19 13 -38 -12 -28 -36 -27 -53 9 -92 33
-36 39 -61 15 -63 -8 -1 -21 -2 -27 -3 -28 -2 -39 -46 -12 -46 8 0 37 -7 64
-16 39 -13 60 -29 111 -90 35 -41 68 -74 75 -74 6 0 21 -12 35 -26 35 -38 61
-45 136 -34 40 5 73 5 83 0 21 -12 40 6 40 37 0 15 8 27 23 33 18 7 19 9 4 9
-10 1 -51 34 -91 74 -40 41 -101 97 -135 125 l-61 51 37 20 c21 10 79 35 128
54 50 20 173 70 274 112 136 55 187 72 192 63 13 -21 22 -136 15 -190 -13 -99
-71 -189 -166 -259 l-35 -26 66 2 c36 1 71 5 77 9 7 4 12 2 12 -4 0 -6 11 -8
28 -4 196 43 293 208 256 434 -21 128 -45 339 -45 395 0 72 -9 126 -20 119 -5
-3 -9 -14 -9 -25 0 -33 -31 -119 -41 -113 -5 3 -9 20 -9 37 0 50 -12 107 -21
107 -5 0 -9 -11 -9 -25 0 -38 -23 -116 -33 -112 -5 1 -11 29 -13 62 -6 78 -20
103 -29 50 -9 -57 -27 -115 -36 -115 -13 0 -18 16 -30 94 -6 42 -15 76 -19 76
-4 0 -12 -24 -18 -52z m278 -345 c8 -7 -140 0 -173 8 -19 5 9 6 68 2 55 -3
102 -7 105 -10z m-860 -37 c0 -8 -4 -18 -10 -21 -5 -3 -10 3 -10 14 0 12 5 21
10 21 6 0 10 -6 10 -14z m-4 -233 c-7 -7 -26 7 -26 19 0 6 6 6 15 -2 9 -7 13
-15 11 -17z m745 -137 c-16 -34 -45 -75 -62 -91 -29 -26 -31 -27 -16 -5 36 51
77 147 89 205 l13 60 3 -54 c3 -44 -3 -66 -27 -115z m117 101 c-6 -70 -24
-111 -75 -175 -47 -58 -52 -47 -8 17 33 50 75 162 75 202 0 10 3 19 6 19 4 0
4 -28 2 -63z m-137 -22 c-13 -69 -45 -127 -97 -175 l-38 -35 26 32 c36 45 73
127 89 196 16 76 34 60 20 -18z m155 -79 c-14 -28 -44 -69 -67 -91 l-41 -40
41 59 c38 55 78 157 83 210 1 11 3 -3 5 -33 3 -42 -1 -64 -21 -105z m-60 93
c-9 -66 -44 -134 -92 -179 l-37 -35 26 35 c36 50 75 137 83 187 3 24 11 43 16
43 7 0 8 -19 4 -51z m-968 -137 c2 -7 -3 -12 -12 -12 -9 0 -16 7 -16 16 0 17
22 14 28 -4z m152 -28 c0 -8 -4 -12 -10 -9 -5 3 -10 10 -10 16 0 5 5 9 10 9 6
0 10 -7 10 -16z m148 -76 c-2 -6 -10 -14 -16 -16 -7 -2 -10 2 -6 12 7 18 28
22 22 4z m42 -48 c-13 -24 -23 -25 -39 -6 -10 12 -7 15 16 19 15 2 29 5 31 6
1 0 -2 -8 -8 -19z m-70 -36 c0 -17 -22 -14 -28 4 -2 7 3 12 12 12 9 0 16 -7
16 -16z"/>
<path d="M2511 4504 c0 -11 3 -14 6 -6 3 7 2 16 -1 19 -3 4 -6 -2 -5 -13z"/>
<path d="M1690 4460 c-11 -11 -27 -20 -35 -20 -26 0 -26 -20 -5 -135 11 -61
21 -117 21 -125 2 -53 34 -207 45 -220 12 -12 21 -12 59 -2 25 7 54 12 65 12
26 0 26 1 -10 221 -50 305 -46 289 -86 289 -21 0 -42 -8 -54 -20z"/>
<path d="M1992 4358 c1 -57 3 -73 5 -43 3 27 9 55 14 61 11 13 1 74 -12 74 -5
0 -8 -42 -7 -92z"/>
<path d="M4640 4374 c0 -10 63 -94 68 -90 4 5 -58 96 -65 96 -2 0 -3 -3 -3 -6z"/>
<path d="M2342 4359 c2 -6 8 -10 13 -10 5 0 11 4 13 10 2 6 -4 11 -13 11 -9 0
-15 -5 -13 -11z"/>
<path d="M2386 4354 c-8 -22 4 -40 15 -23 11 18 11 39 0 39 -5 0 -12 -7 -15
-16z"/>
<path d="M2030 4335 c-25 -30 10 -61 38 -33 7 7 8 17 1 30 -12 22 -23 23 -39
3z"/>
<path d="M5649 4335 c14 -29 60 -82 60 -70 1 6 -15 28 -35 50 -19 22 -31 31
-25 20z"/>
<path d="M1844 4326 c-3 -8 -4 -27 -2 -43 3 -25 6 -28 37 -25 55 4 80 39 49
70 -17 17 -77 15 -84 -2z"/>
<path d="M2110 4291 c0 -6 -13 -30 -30 -53 -16 -22 -30 -48 -30 -57 0 -9 8 -3
19 15 25 42 38 49 46 25 6 -20 45 -35 58 -22 4 4 -4 13 -18 21 -17 9 -25 22
-25 41 0 15 -4 31 -10 34 -5 3 -10 1 -10 -4z"/>
<path d="M2000 4242 c0 -13 5 -32 11 -44 9 -16 6 -25 -13 -46 l-23 -27 30 25
c17 14 31 25 33 26 1 1 -7 21 -18 45 -15 33 -20 38 -20 21z"/>
<path d="M1884 4195 c-6 -15 2 -35 14 -35 4 0 13 4 21 9 12 8 12 12 2 25 -17
20 -30 20 -37 1z"/>
<path d="M5781 4161 c47 -65 221 -291 229 -296 5 -3 12 -1 15 5 4 6 -13 32
-37 58 -24 26 -81 93 -127 150 -46 56 -86 102 -88 102 -3 0 1 -9 8 -19z"/>
<path d="M2040 4140 c0 -5 5 -10 11 -10 5 0 7 5 4 10 -3 6 -8 10 -11 10 -2 0
-4 -4 -4 -10z"/>
<path d="M630 4100 c0 -19 3 -21 12 -12 9 9 9 15 0 24 -9 9 -12 7 -12 -12z"/>
<path d="M4860 4071 c0 -14 113 -172 136 -192 11 -9 14 -8 14 4 0 9 -5 19 -10
22 -6 4 -40 45 -75 92 -36 47 -65 80 -65 74z"/>
<path d="M1890 4045 c-16 -19 -4 -85 15 -85 22 0 27 17 20 60 -7 43 -15 49
-35 25z"/>
<path d="M549 3953 c-13 -16 -12 -17 4 -4 9 7 17 15 17 17 0 8 -8 3 -21 -13z"/>
<path d="M304 3875 c-3 -8 -2 -32 4 -52 l10 -38 1 53 c1 52 -5 65 -15 37z"/>
</g>
</svg>
