<?xml version="1.0" encoding="UTF-8"?>
<svg id="Camada_1" data-name="Camada 1" xmlns="http://www.w3.org/2000/svg" viewBox="0 0 390.94 232.22">
  <defs>
    <style>
      .cls-1 {
        letter-spacing: .33em;
      }

      .cls-2, .cls-3, .cls-4, .cls-5 {
        stroke: #ea5b0c;
        stroke-miterlimit: 10;
      }

      .cls-2, .cls-5, .cls-6 {
        fill: #fff;
      }

      .cls-7 {
        letter-spacing: .2em;
        font-size: 20px;
      }

      .cls-8 {
        fill: #ea5b0c;
        font-size: 63px;
      }

      .cls-8, .cls-6 {
        font-family: LEMONMILK-Regular, 'LEMON MILK';
      }

      .cls-3 {
        fill: #e94e1b;
      }

      .cls-3, .cls-4, .cls-5 {
        fill-rule: evenodd;
      }

      .cls-4 {
        fill: #010101;
      }

      .cls-9 {
        fill: #f6f6f6;
        font-family: LEMONMILK-Light, 'LEMON MILK';
        font-size: 42.67px;
        font-weight: 300;
      }

      .cls-10 {
        letter-spacing: .5em;
      }

      .cls-6 {
        font-size: 10px;
      }
    </style>
  </defs>
  <g>
    <path class="cls-3" d="m259.95,34.24l14.5,1.65,11.79,1.34-10.99-2.53,11.11-16.65,4.16,1.1,30.01-18.12,2.66.81,6.41,8.64,10.1.78.89,3.07-2.43,3.8,10.14,22.24,1.81,1.32c1.65,3.75,3.13,6.76,4.66,10.58.5,1.24.09,2.12-.83,2.95l-2.56,2.31.98,1.68c3.01,5.18,6.17,16.29,5.67,22.79l-2.71,35.59-1.89.81-10.12,4.35-2.9,1.23,2.66-11.48-1.67-21.38,5.2,15.31-8.82-25.96-21.69-40.09,1.23-.81,1.66-1.09,4.55-2.99-8,3.85-18.33,8.82-7.3,23.9,1.82,3.03-3.53,11.57-1.44.2.05,3.34-2.46-.58-2.12-4.04-.37,3.44-2.88-.69-1.55-4.19-.36,3.74-2.52-.6-1.88-4.15-.07,3.68-2.49-.59-1.75-4.44-.33,3.94-2.27-.54-2.04-4.12-.31,3.56-2.08-.5c-4.77-13.43-8.06-20.65-10.53-35.7-.94-5.74,3.51-14.8,9.14-14.16"/>
    <path class="cls-5" d="m348.33,56.25s6.28,12.6,5.87,24.84c-.41,12.24-2.68,34.28-2.68,34.28l3.12-.98,2.45-30.9-.19-7.64-3.26-10.65-5.31-8.95Z"/>
    <polygon class="cls-5" points="334.63 23.15 331.86 27.15 349.87 56.72 352.23 52.79 334.63 23.15"/>
    <polygon class="cls-5" points="320.2 2.39 320.85 1.51 323.12 2.43 329.62 11.07 327.98 11.94 320.2 2.39"/>
    <polygon class="cls-5" points="297.2 20.6 285.55 34.92 294.69 19.48 297.2 20.6"/>
    <polygon class="cls-2" points="319.73 9.38 314.09 5.86 289.45 20.37 292.58 21.32 303.52 15.64 314.7 8.96 319.73 9.38"/>
    <path class="cls-2" d="m293.58,40.8l37.93-24.15,6.37-4.11-5.08-.11s-27.26,16.98-27.68,17.34c-.42.37-13.35,8.63-13.35,8.63l1.82,2.4Z"/>
    <path class="cls-2" d="m288.25,37.46s-5.02,3.41-6.06,8.44c-1.04,5.03-.39,22.57,4.98,38.2l-4.49-2.68-5.46-28.09,2.62-13.21,8.4-2.66Z"/>
    <path class="cls-4" d="m259.95,34.24c7.03-2.97,13.8,1.2,14.5,1.65l11.79,1.34-10.99-2.53h0s11.11-16.65,11.11-16.65l4.16,1.1,30.01-18.12,2.66.81,6.41,8.64,10.1.78.89,3.07-2.43,3.8,10.14,22.24,1.81,1.31c1.65,3.75,3.13,6.76,4.66,10.58.5,1.24.09,2.12-.83,2.95l-2.56,2.31.98,1.68c3.01,5.18,6.17,16.29,5.67,22.79l-2.71,35.59c-4.97,2.13-5.61,2.41-10.58,4.54l11.22-39.18c.58-7.01-2.38-16.41-5.42-21.58l-19.21-32.65-3.6,5.09,15.41,26.21c3.86,6.56,7.41,15.3,6.71,23.17-3.15,13.59-6.29,27.19-9.44,40.78,1.04-4.55.69-2.85.91-3.95.03-.13-.12.54.15-.64l1.05-4.55.3-1.3,3.99-6.48-9.03-26.6-21.69-40.09,1.23-.81,22.05,39.68-20.39-40.77,4.55-2.99-8,3.85-18.33,8.82-7.3,23.9,1.82,3.03-3.53,11.57-1.44.2.05,3.34-2.46-.58-2.12-4.04-.37,3.44-2.88-.68-1.55-4.19-.36,3.74-2.52-.6-1.88-4.15-.07,3.68-2.49-.59-1.75-4.44-.33,3.94-2.27-.54-2.04-4.12-.31,3.56-2.08-.5c-3.1-10.08-5.92-18.01-7.97-23.53-1.77-4.75-3.03-7.83-2.56-12.17.14-1.28,1.16-10.79,9.14-14.16Zm54.19-27.9l-22.52,13.11.79.21,21.33-12.42,2.45,2.08-2.05-2.98Zm-20.19,33.23l.95,1.25,36.6-24.16-37.55,22.91Zm3.54-17.91l-2.27-1.25-9.68,14.51,3.76-1.18,9.31-8.01-1.13-4.07Zm-43.29,24.64c1.07-3.15,2.79-5.57,5.23-7.19l15.03-.63-15.99-1.46c-2.48,1.91-4.45,6.01-4.27,9.28M320.76,1.9l1.95,1.53,5.56,7.8.82-.4-6.01-7.95-2.32-.98Zm-27.48,36.79l4.86,6.37,29.29-14.85,11.1-16.88-4.34.08-40.92,25.28Zm-5.03-1.23c-12.9,2.63-9.97,22.49-1.07,46.64l2.44-8.02-1.96-3.47,8.25-27.02-2.59-2.75-9.1,20.58,7.87-21.89-3.83-4.06Zm45.89-13.06l-1.06,1.66,10.82,18.62,6.7,11.43-16.46-31.7Zm-35.64-3.12l1.35,4.74-9.73,8.41,29.98-18.87-3.56-5.04-18.04,10.76Z"/>
  </g>
  <text class="cls-9" transform="translate(217.58 153.12)"><tspan x="0" y="0">TERRA</tspan></text>
  <text class="cls-8" transform="translate(0 153.8)"><tspan x="0" y="0">TRANS</tspan></text>
  <text class="cls-6" transform="translate(34.09 180.54)"><tspan class="cls-7" x="0" y="0">escavações e transportes</tspan><tspan class="cls-1" x="35.14" y="0"></tspan><tspan class="cls-7" x="56.92" y="0"></tspan><tspan class="cls-10" x="232.57" y="0"></tspan><tspan class="cls-7" x="244.26" y="0"></tspan></text>
  
</svg>